# xmcd CD database file
#
# Track frame offsets:
#	150
#	17500
#	39321
#	58911
#	76597
#	91770
#	116283
#	143153
#	164691
#	175209
#	190570
#	199695
#	221438
#	250004
#	273517
#	294390
#	306260
#	328306
#
# Disc length: 4661 seconds
#
# Revision: 1
# Processed by: cddbd v1.5.2PL0 Copyright (c) Steve Scherf et al.
# Submitted via: CDex 2.05
#
DISCID=f4123312
DTITLE=Milt Hinton - The Judge At His Best
DYEAR=1900
DGENRE=Jazz
TTITLE0=Joshua
TTITLE1=I Know That You Know
TTITLE2=Russian Lullaby
TTITLE3=Deep Night
TTITLE4=Shine
TTITLE5=Mona's Feeling Lonely
TTITLE6=Right Here, Right Now
TTITLE7=Rosetta
TTITLE8=Mama Don't Allow It
TTITLE9=Slap Happy
TTITLE10=Milt's Rap
TTITLE11=Honey
TTITLE12=New Orleans
TTITLE13=Jumping At The Woodside
TTITLE14=Just A Closer Walk With Thee
TTITLE15=What Am I Here For?
TTITLE16=Hindustan
TTITLE17=Old Man Time
EXTD=
EXTT0=
EXTT1=
EXTT2=
EXTT3=
EXTT4=
EXTT5=
EXTT6=
EXTT7=
EXTT8=
EXTT9=
EXTT10=
EXTT11=
EXTT12=
EXTT13=
EXTT14=
EXTT15=
EXTT16=
EXTT17=
PLAYORDER=
